<svg id="0672b4ef-872d-445c-a36c-d970976f80b5" data-name="Layer 1" xmlns="http://www.w3.org/2000/svg" viewBox="0 0 55.1 39.44">
  <title>msm-logo-stack-rgb</title>
  <path id="2cfacd8d-ea7c-469d-8224-ac5d95967041" data-name="Fill-2" d="M35.52,37.45l.64,1.21a1.22,1.22,0,0,0,1,.6h2.56c.63-.07.3-.64.3-.64l-2.13-4a1.16,1.16,0,0,1,.14-1.2L39.9,31c.37-.52-.2-.55-.2-.55H37A1.5,1.5,0,0,0,36,31l-1.16,1.66c-.35.4-.35-.16-.35-.16V28.25a.68.68,0,0,0-.71-.73H31.59a.69.69,0,0,0-.77.68V38.56a.69.69,0,0,0,.68.69h2.26a.7.7,0,0,0,.71-.71v-.6a.42.42,0,0,1,.1-.28l.48-.61s.14-.21.24,0l.22.41Zm14-7.74c0,.72-.43.78-.52.78-.46,0-.52.63-.52.63V32.6c0,.51.31.69.51.7.5,0,.52.66.52.66v2.4a3.88,3.88,0,0,0,.17,1.23,2.57,2.57,0,0,0,2.09,1.78,5.33,5.33,0,0,0,2.4-.08,1.08,1.08,0,0,0,1-1V36.47c0-.25-.21-.22-.32-.18a2.55,2.55,0,0,1-.82.14.79.79,0,0,1-.67-.25,1.1,1.1,0,0,1-.19-.6V34a.71.71,0,0,1,.71-.72h.61a.71.71,0,0,0,.71-.7V31.22a.7.7,0,0,0-.74-.74h-.54a.69.69,0,0,1-.75-.7V29a.69.69,0,0,0-.66-.75h-2.3a.71.71,0,0,0-.7.68s0,.18,0,.75Zm-30.1,6.54a1.14,1.14,0,0,1-.9,1.1c-.58,0-.67-.11-.8-.22a1,1,0,0,1-.18-1,1.12,1.12,0,0,1,1.1-.64c.9.09.79.55.78.76Zm3.62-2a4.58,4.58,0,0,0-.44-2.13,3.29,3.29,0,0,0-1.52-1.33,7.79,7.79,0,0,0-3-.44,12.92,12.92,0,0,0-2.59.42.73.73,0,0,0-.58.86s.29,1.07.38,1.41a.34.34,0,0,0,.48.24A5.22,5.22,0,0,1,18.53,33a1.1,1.1,0,0,1,.88.94c.05.31-.14.34-.26.31A7.91,7.91,0,0,0,17.5,34a4.24,4.24,0,0,0-2.33.52A2.77,2.77,0,0,0,15.12,39a3.38,3.38,0,0,0,1.88.47,3.54,3.54,0,0,0,1.91-.7.89.89,0,0,1,.27-.13c.25,0,.2.08.23.17,0,.46.65.45.65.45h2.25a.68.68,0,0,0,.75-.74s0-3.9,0-4.29Zm3.64,5a.69.69,0,0,0,.73-.68V36.83A3,3,0,0,1,28,35a2.41,2.41,0,0,1,1.83-.74.34.34,0,0,0,.37-.36s0-2.8,0-3.17-.29-.35-.43-.33a3.18,3.18,0,0,0-1.58.88c-.14.14-.4.49-.48.57-.27.21-.26-.2-.26-.2v-.4a.72.72,0,0,0-.68-.74h-2.3a.71.71,0,0,0-.67.65v7.4a.7.7,0,0,0,.65.74Zm17.92-5.16H43.44s-.67-.05-.35-.73a1,1,0,0,1,1-.57,1.16,1.16,0,0,1,.86.66c.07.17.22.62-.37.64Zm3.82.15a4.52,4.52,0,0,0-1.46-3,4.72,4.72,0,0,0-2.9-1,4.55,4.55,0,0,0-2.06.39,4.35,4.35,0,0,0-2.12,2,5.35,5.35,0,0,0-.46,2.86,4.29,4.29,0,0,0,.81,2.1,4.48,4.48,0,0,0,3.31,1.78A4.86,4.86,0,0,0,47.88,38c.31-.33.17-.58,0-.71l-1.23-1a.49.49,0,0,0-.69,0,2.59,2.59,0,0,1-.95.53,1.61,1.61,0,0,1-1.83-.65c-.21-.49.4-.46.4-.46s4.28,0,4.47,0c.47,0,.42-.3.45-.46a7.52,7.52,0,0,0-.05-1ZM7.34,37.35c0-.09.12-.17.18-.27l1.83-2.83c.21-.32.38-.27.38.11v4.19a.7.7,0,0,0,.7.7h2.35a.7.7,0,0,0,.7-.7V28.68a.7.7,0,0,0-.7-.7H10.24a1.38,1.38,0,0,0-1.06.6L7.5,31.34a.39.39,0,0,1-.73,0L5.08,28.58A1.38,1.38,0,0,0,4,28H1.49a.7.7,0,0,0-.7.7v9.86a.7.7,0,0,0,.7.7H3.78a.7.7,0,0,0,.7-.7V34.36c0-.38.17-.43.38-.11l1.83,2.83.17.25c.13.17.36.21.48,0ZM27.81,20.82a1.47,1.47,0,1,1-2.93,0v0a1.47,1.47,0,1,1,2.93,0v0Zm3.42-1.31a4.27,4.27,0,0,0-1.6-2.64,3.5,3.5,0,0,0-3.08-.53,4,4,0,0,0-1.26.77C25,17.29,25,17.06,25,17c0-.57-.65-.59-.64-.59H22a.7.7,0,0,0-.68.68v3.36s0,5.76,0,6.58a.71.71,0,0,0,.69.74h2.24A.7.7,0,0,0,25,27V24.53s0-.24.23-.09a3.18,3.18,0,0,0,2.3,1,3.4,3.4,0,0,0,2.5-1,4.47,4.47,0,0,0,1.1-1.88,6.31,6.31,0,0,0,.13-3Zm-20,2.75a4.17,4.17,0,0,0,.16,1.1,2.76,2.76,0,0,0,2.71,2,3.43,3.43,0,0,0,2.26-.84.89.89,0,0,1,.34-.23c.19,0,.23.12.23.26,0,.57.66.6.66.6h2.32a.71.71,0,0,0,.68-.72V17.14a.7.7,0,0,0-.67-.73H17.58a.69.69,0,0,0-.66.72v4a1.11,1.11,0,0,1-1,1.12c-1,0-1-1.18-1-1.18V17.13a.71.71,0,0,0-.65-.73H11.89a.7.7,0,0,0-.67.7v5.16ZM44.28,25.2a.7.7,0,0,0,.73-.68V22.79a3,3,0,0,1,.55-1.87,2.39,2.39,0,0,1,1.83-.74.35.35,0,0,0,.38-.37s0-2.8,0-3.16-.29-.35-.44-.33a3.07,3.07,0,0,0-1.58.88c-.15.14-.41.5-.48.57-.27.21-.26-.2-.26-.2v-.4a.72.72,0,0,0-.68-.74H42a.71.71,0,0,0-.67.65v7.4a.7.7,0,0,0,.65.74ZM4,25.27a8.45,8.45,0,0,0,3.79-.15,3.83,3.83,0,0,0,2.51-1.94,3.74,3.74,0,0,0,.19-2.66,3.16,3.16,0,0,0-1.73-1.76A11.68,11.68,0,0,0,6,17.94a9.8,9.8,0,0,1-1.12-.27c-.51-.19-.49-.33-.52-.43a.43.43,0,0,1,.29-.47,2.64,2.64,0,0,1,1.73.15,11.8,11.8,0,0,1,1.32.47,3.52,3.52,0,0,1,.38.17.62.62,0,0,0,.77-.18l1.28-1.78a.47.47,0,0,0-.09-.62c-.22-.15-.27-.17-.68-.41a8.83,8.83,0,0,0-3.66-.87,3.07,3.07,0,0,0-.59,0,5.35,5.35,0,0,0-3.24,1A3.46,3.46,0,0,0,.58,17a2.85,2.85,0,0,0,.71,2.51,5.45,5.45,0,0,0,2.32,1.25c.79.24,1.78.42,2.24.53,1,.22,1,.44,1,.63,0,.44-.47.49-.94.51a10.22,10.22,0,0,1-3.53-1.1.68.68,0,0,0-.73.12L.31,23.05c-.29.35-.18.61,0,.75a8.55,8.55,0,0,0,3.17,1.37l.55.09ZM37,20H35.79s-.67-.05-.35-.73a1,1,0,0,1,1-.58,1.18,1.18,0,0,1,.87.66c.07.17.22.62-.37.64Zm3.82.15a4.53,4.53,0,0,0-1.46-3,4.71,4.71,0,0,0-2.9-1,4.58,4.58,0,0,0-2.07.39,4.35,4.35,0,0,0-2.12,2,5.25,5.25,0,0,0-.46,2.86,4.26,4.26,0,0,0,.8,2.1,4.48,4.48,0,0,0,3.31,1.78,4.86,4.86,0,0,0,4.32-1.45c.31-.33.17-.59,0-.71l-1.23-1a.49.49,0,0,0-.69,0,2.56,2.56,0,0,1-.95.53,1.61,1.61,0,0,1-1.83-.65c-.21-.49.4-.46.4-.46s4.28,0,4.47,0c.47,0,.41-.3.45-.45a7.1,7.1,0,0,0-.05-1ZM27.44,11.31a.71.71,0,0,0,.71-.73s0-3.57,0-3.9a1.11,1.11,0,0,1,1-1.17c1,0,1,1.15,1,1.15v4a.69.69,0,0,0,.64.66h2.37a.71.71,0,0,0,.65-.67s0-4.91,0-5.15A3.22,3.22,0,0,0,33,3.17a2.93,2.93,0,0,0-2.19-.85,3.49,3.49,0,0,0-2.26,1c-.39.29-.41-.06-.43-.16a.69.69,0,0,0-.61-.63h-2.4a.69.69,0,0,0-.64.63V10.5a.7.7,0,0,0,.65.81Zm17-4.47,1.63,4c.18.39.08.56-.13.51A5.55,5.55,0,0,1,44.6,11a.67.67,0,0,0-.92.28s-.44,1-.59,1.37a.6.6,0,0,0,.36.83,9.61,9.61,0,0,0,1.22.43,4.64,4.64,0,0,0,3.51-.25c1.22-.69,1.83-2.64,2.08-3.3l2.58-6.94c.28-.75-.46-.72-.46-.72H50.07a1,1,0,0,0-.87.65s-.94,3.11-1,3.34-.12.24-.19.25-.2-.21-.2-.21L46.7,3.35a1,1,0,0,0-.92-.68s-1.79,0-2.4,0a.43.43,0,0,0-.43.63l1.44,3.53Zm-4.83-.57H38.38s-.67-.05-.34-.73a1,1,0,0,1,1-.57,1.16,1.16,0,0,1,.87.66c.07.17.22.62-.37.64Zm3.82.15a4.51,4.51,0,0,0-1.46-3,4.71,4.71,0,0,0-2.9-1A4.54,4.54,0,0,0,37,2.82a4.35,4.35,0,0,0-2.12,2,5.18,5.18,0,0,0-.46,2.86,4.27,4.27,0,0,0,.8,2.1A4.5,4.5,0,0,0,38.5,11.6a4.87,4.87,0,0,0,4.32-1.45c.31-.33.17-.58,0-.71l-1.23-1a.49.49,0,0,0-.69,0A2.58,2.58,0,0,1,40,9a1.6,1.6,0,0,1-1.83-.65c-.21-.49.39-.46.39-.46s4.29,0,4.47,0c.47,0,.41-.29.45-.45a7.45,7.45,0,0,0-.05-1Zm-36.05,3c0-.08.12-.17.18-.26L9.34,6.31c.21-.32.38-.27.38.11V10.6a.7.7,0,0,0,.7.7h2.35a.7.7,0,0,0,.7-.7V.74a.7.7,0,0,0-.7-.7H10.24a1.39,1.39,0,0,0-1.06.6L7.5,3.4a.39.39,0,0,1-.73,0L5.08.64A1.39,1.39,0,0,0,4,0H1.49a.7.7,0,0,0-.7.7V10.6a.7.7,0,0,0,.7.7H3.78a.7.7,0,0,0,.7-.7V6.42c0-.38.17-.43.38-.11L6.69,9.14l.17.25c.13.17.36.22.48,0ZM20.44,7v0A1.5,1.5,0,0,0,19,5.36a1.45,1.45,0,0,0-1.42,1.53v0A1.5,1.5,0,0,0,19,8.48,1.45,1.45,0,0,0,20.44,7ZM14.07,7v0a4.73,4.73,0,0,1,5-4.6,4.68,4.68,0,0,1,4.92,4.57v0a4.73,4.73,0,0,1-5,4.6A4.69,4.69,0,0,1,14.07,7Z" transform="translate(-0.13 -0.04)" style="fill: #562873"/>
</svg>
